<?xml version="1.0" ?><!DOCTYPE svg  PUBLIC '-//W3C//DTD SVG 1.1//EN'  'http://www.w3.org/Graphics/SVG/1.1/DTD/svg11.dtd'><svg height="100%" style="fill-rule:evenodd;clip-rule:evenodd;stroke-linejoin:round;stroke-miterlimit:2;" version="1.1" viewBox="0 0 32 32" width="100%" xml:space="preserve" xmlns="http://www.w3.org/2000/svg" xmlns:serif="http://www.serif.com/" xmlns:xlink="http://www.w3.org/1999/xlink"><path d="M5.994,16.986l-0.004,-0c-1.655,-0 -3,1.344 -3,3c0,1.656 1.345,3 3,3c0,-0 2,-0 2,-0c0.552,-0 1,0.448 1,1c0,0.552 -0.448,1 -1,1l-3,-0c-0.552,-0 -1,0.448 -1,1c0,0.552 0.448,1 1,1l1.004,-0l-0,1c-0,0.552 0.448,1 1,1c0.552,-0 1,-0.448 1,-1l-0,-1c1.654,-0.002 2.996,-1.345 2.996,-3c0,-1.656 -1.344,-3 -3,-3c0,-0 -2,-0 -2,-0c-0.552,-0 -1,-0.448 -1,-1c0,-0.552 0.448,-1 1,-1c0,-0 3,-0 3,-0c0.552,-0 1,-0.448 1,-1c0,-0.552 -0.448,-1 -1,-1l-0.996,-0l-0,-1c-0,-0.552 -0.448,-1 -1,-1c-0.552,-0 -1,0.448 -1,1l-0,1Z"/><circle cx="23.99" cy="14.25" r="1.25"/><circle cx="23.99" cy="19" r="1.25"/><circle cx="23.99" cy="23.75" r="1.25"/><circle cx="19.99" cy="14.25" r="1.25"/><circle cx="19.99" cy="19" r="1.25"/><circle cx="19.99" cy="23.75" r="1.25"/><circle cx="15.99" cy="14.25" r="1.25"/><circle cx="15.99" cy="19" r="1.25"/><circle cx="15.99" cy="23.75" r="1.25"/><circle cx="11.99" cy="14.25" r="1.25"/><path d="M5,10.995l21.99,-0.051l0,15.053c0,0.552 -0.447,1 -1,1c0,-0 -13,-0 -13,-0c-0.552,-0 -1,0.448 -1,1c0,0.552 0.448,1 1,1l13,-0c1.657,-0 3,-1.343 3,-3l0,-19.99c0,-1.657 -1.343,-3 -3,-3l-19.99,-0c-1.657,-0 -3,1.343 -3,3l-0,6.002c-0,0.552 0.448,1 1,1c0.552,0 1,-0.448 1,-1l-0,-1.014Zm19.99,-5.988l0,0.993c0,0.552 -0.448,1 -1,1c-0.552,-0 -1,-0.448 -1,-1l0,-0.993l-2,-0l0,0.993c0,0.552 -0.448,1 -1,1c-0.552,-0 -1,-0.448 -1,-1l0,-0.993l-1.99,-0l-0,0.993c0,0.552 -0.448,1 -1,1c-0.552,0 -1,-0.448 -1,-1l-0,-0.993l-1.99,-0l-0,0.99c-0,0.552 -0.448,1 -1,1c-0.552,-0 -1,-0.448 -1,-1l-0,-0.99l-1.991,-0l0,0.99c0,0.552 -0.448,1 -1,1c-0.552,-0 -1,-0.448 -1,-1l0,-0.99l-1.019,-0c-0.552,-0 -1,0.447 -1,1l-0,2.988l21.99,-0.051l0,-2.938c0,-0.552 -0.447,-0.999 -1,-0.999l-1,-0Z"/><g id="Icon"/></svg>